<?xml version="1.0" encoding="UTF-8"?>
<!--Generator: Apple Native CoreSVG 341-->
<!DOCTYPE svg
PUBLIC "-//W3C//DTD SVG 1.1//EN"
       "http://www.w3.org/Graphics/SVG/1.1/DTD/svg11.dtd">
<svg version="1.1" xmlns="http://www.w3.org/2000/svg" xmlns:xlink="http://www.w3.org/1999/xlink" viewBox="0 0 279.688 233.887">
 <g>
  <rect height="233.887" opacity="0" width="279.688" x="0" y="0"/>
  <path d="M29.1992 167.48L51.5625 167.48C60.2539 167.48 65.1367 162.5 65.1367 153.711L65.1367 131.25C65.1367 122.461 60.2539 117.48 51.5625 117.48L29.1992 117.48C20.4102 117.48 15.2344 122.461 15.2344 131.25L15.2344 153.711C15.2344 162.5 20.4102 167.48 29.1992 167.48ZM95.4102 167.48L117.773 167.48C126.465 167.48 131.445 162.5 131.445 153.711L131.445 131.25C131.445 122.461 126.465 117.48 117.773 117.48L95.4102 117.48C86.5234 117.48 81.3477 122.461 81.3477 131.25L81.3477 153.711C81.3477 162.5 86.5234 167.48 95.4102 167.48ZM161.328 167.48L183.691 167.48C192.383 167.48 197.559 162.5 197.559 153.711L197.559 131.25C197.559 122.461 192.383 117.48 183.691 117.48L161.328 117.48C152.637 117.48 147.656 122.461 147.656 131.25L147.656 153.711C147.656 162.5 152.637 167.48 161.328 167.48ZM227.344 167.48L249.707 167.48C258.594 167.48 263.77 162.5 263.77 153.711L263.77 131.25C263.77 122.461 258.594 117.48 249.707 117.48L227.344 117.48C218.652 117.48 213.77 122.461 213.77 131.25L213.77 153.711C213.77 162.5 218.652 167.48 227.344 167.48ZM28.9062 233.789L51.1719 233.789C60.0586 233.789 65.1367 228.809 65.1367 220.02L65.1367 197.363C65.1367 188.672 60.0586 183.691 51.1719 183.691L28.9062 183.691C20.2148 183.691 15.2344 188.672 15.2344 197.363L15.2344 220.02C15.2344 228.809 20.2148 233.789 28.9062 233.789ZM95.0195 233.789L183.984 233.789C192.871 233.789 197.754 228.809 197.754 220.02L197.754 197.363C197.754 188.672 192.871 183.691 183.984 183.691L95.0195 183.691C86.2305 183.691 81.3477 188.672 81.3477 197.363L81.3477 220.02C81.3477 228.809 86.2305 233.789 95.0195 233.789ZM227.832 233.789L250.195 233.789C258.984 233.789 263.77 228.809 263.77 220.02L263.77 197.363C263.77 188.672 258.984 183.691 250.195 183.691L227.832 183.691C219.043 183.691 213.965 188.672 213.965 197.363L213.965 220.02C213.965 228.809 219.043 233.789 227.832 233.789ZM139.844 0C93.6523 0 41.2109 8.49609 15.625 34.7656C5.85938 44.6289 0 57.0312 0 72.5586C0 83.1055 3.22266 98.0469 14.4531 100.098C18.0664 101.855 22.0703 101.465 27.3438 100.586L62.1094 94.8242C74.1211 92.7734 79.9805 88.2812 83.1055 76.6602L88.8672 55.7617C89.9414 51.6602 91.2109 50.0977 96.0938 48.2422C105.664 44.9219 120.996 43.0664 139.844 43.0664C158.691 42.9688 173.926 44.9219 183.594 48.2422C188.379 50.0977 189.648 51.6602 190.723 55.7617L196.484 76.6602C199.707 88.2812 205.566 92.7734 217.578 94.8242L252.246 100.586C257.617 101.465 261.523 101.855 265.234 100.098C276.367 98.0469 279.688 83.1055 279.688 72.5586C279.688 57.0312 273.73 44.6289 264.062 34.7656C238.477 8.49609 185.938 0 139.844 0Z" fill="white" fill-opacity="0.85"/>
 </g>
</svg>
